<svg width="15" height="15" viewBox="0 0 15 15" fill="none" xmlns="http://www.w3.org/2000/svg">
<path d="M7.48128 3.2959C7.13949 3.2959 6.8221 3.38135 6.52914 3.55225C6.23617 3.72314 6.00668 3.95508 5.84066 4.24805C5.67464 4.54102 5.59164 4.8584 5.59164 5.2002C5.59164 5.54199 5.67464 5.85938 5.84066 6.15234C6.00668 6.44531 6.23617 6.67725 6.52914 6.84814C6.8221 7.01904 7.13949 7.10449 7.48128 7.10449C7.82308 7.10449 8.14046 7.01904 8.43343 6.84814C8.7264 6.67725 8.95834 6.44531 9.12923 6.15234C9.30013 5.85938 9.38558 5.54199 9.38558 5.2002C9.38558 4.8584 9.30013 4.54102 9.12923 4.24805C8.95834 3.95508 8.7264 3.72314 8.43343 3.55225C8.14046 3.38135 7.82308 3.2959 7.48128 3.2959ZM7.48128 6.5625C7.11019 6.5625 6.79281 6.42822 6.52914 6.15967C6.26546 5.89111 6.13363 5.57129 6.13363 5.2002C6.13363 4.8291 6.26546 4.51172 6.52914 4.24805C6.79281 3.98438 7.11019 3.85254 7.48128 3.85254C7.85238 3.85254 8.1722 3.98438 8.44076 4.24805C8.70931 4.51172 8.84359 4.8291 8.84359 5.2002C8.84359 5.57129 8.70931 5.89111 8.44076 6.15967C8.1722 6.42822 7.85238 6.5625 7.48128 6.5625ZM11.1141 1.56738C10.6258 1.0791 10.0643 0.703125 9.42953 0.439453C8.79476 0.175781 8.1307 0.0439453 7.43734 0.0439453C6.74398 0.0439453 6.07992 0.175781 5.44515 0.439453C4.81039 0.703125 4.24886 1.0791 3.76058 1.56738C3.16488 2.16309 2.73519 2.91016 2.47152 3.80859C2.22738 4.67773 2.16878 5.56641 2.29574 6.47461C2.43246 7.40234 2.75472 8.20312 3.26253 8.87695L7.43734 14.8975L11.5975 8.8916C12.1053 8.20801 12.4276 7.40234 12.5643 6.47461C12.701 5.57617 12.6424 4.6875 12.3885 3.80859C12.1346 2.91016 11.7098 2.16309 11.1141 1.56738ZM11.158 8.56934L7.43734 13.9453L3.70199 8.56934C3.243 7.9541 2.95003 7.22656 2.82308 6.38672C2.70589 5.56641 2.7596 4.76562 2.98421 3.98438C3.21859 3.16406 3.60433 2.49023 4.14144 1.96289C4.58089 1.51367 5.08382 1.17188 5.65023 0.9375C6.21664 0.703125 6.81234 0.585938 7.43734 0.585938C8.06234 0.585938 8.65804 0.703125 9.22445 0.9375C9.79085 1.17188 10.2938 1.51367 10.7332 1.96289C11.2703 2.49023 11.6512 3.16406 11.8758 3.98438C12.1102 4.76562 12.1639 5.56641 12.0369 6.38672C11.91 7.22656 11.617 7.9541 11.158 8.56934Z" fill="white"/>
</svg>
