<svg width="22" height="22" viewBox="0 0 22 22" fill="none" xmlns="http://www.w3.org/2000/svg">
<rect width="22" height="22" fill="#4B5E96"/>
<g clip-path="url(#clip0_84_29)">
<path d="M9.44644 13.442L13.4978 11.3493L9.44644 9.23159V13.442ZM10.995 6.22656C11.9325 6.22656 12.8379 6.23912 13.7112 6.26423C14.5846 6.28934 15.2249 6.31585 15.6323 6.34375L16.2433 6.37723C16.2489 6.37723 16.2963 6.38142 16.3856 6.38979C16.4749 6.39816 16.5391 6.40653 16.5781 6.4149C16.6172 6.42327 16.6828 6.43583 16.7748 6.45257C16.8669 6.46931 16.9464 6.49163 17.0134 6.51953C17.0804 6.54743 17.1585 6.58371 17.2478 6.62835C17.3371 6.67299 17.4236 6.7274 17.5073 6.79157C17.591 6.85575 17.6719 6.92969 17.75 7.01339C17.7835 7.04688 17.8267 7.09849 17.8798 7.16825C17.9328 7.238 18.0137 7.40123 18.1225 7.65792C18.2313 7.91462 18.3053 8.19643 18.3443 8.50335C18.389 8.86049 18.4238 9.24135 18.4489 9.64593C18.4741 10.0505 18.4894 10.3672 18.495 10.596V10.9308V12.0692C18.5006 12.8783 18.4503 13.6875 18.3443 14.4967C18.3053 14.8036 18.2355 15.0812 18.1351 15.3295C18.0346 15.5778 17.9453 15.7494 17.8672 15.8443L17.75 15.9866C17.6719 16.0703 17.591 16.1443 17.5073 16.2084C17.4236 16.2726 17.3371 16.3256 17.2478 16.3675C17.1585 16.4093 17.0804 16.4442 17.0134 16.4721C16.9464 16.5 16.8669 16.5223 16.7748 16.5391C16.6828 16.5558 16.6158 16.5684 16.5739 16.5767C16.5321 16.5851 16.4679 16.5935 16.3814 16.6018C16.2949 16.6102 16.2489 16.6144 16.2433 16.6144C14.8426 16.7204 13.0932 16.7734 10.995 16.7734C9.83985 16.7623 8.83678 16.7441 7.98578 16.719C7.13477 16.6939 6.57534 16.673 6.30749 16.6563L5.89733 16.6228L5.59599 16.5893C5.3951 16.5614 5.24303 16.5335 5.1398 16.5056C5.03656 16.4777 4.89426 16.4191 4.7129 16.3298C4.53154 16.2405 4.37389 16.1261 4.23996 15.9866C4.20648 15.9531 4.16323 15.9015 4.11022 15.8318C4.05721 15.762 3.97629 15.5988 3.86748 15.3421C3.75866 15.0854 3.68472 14.8036 3.64566 14.4967C3.60101 14.1395 3.56614 13.7586 3.54102 13.3541C3.51591 12.9495 3.50057 12.6328 3.49499 12.404V12.0692V10.9308C3.48941 10.1217 3.53963 9.3125 3.64566 8.50335C3.68472 8.19643 3.75447 7.91881 3.85492 7.67048C3.95537 7.42215 4.04465 7.25056 4.12278 7.15569L4.23996 7.01339C4.31809 6.92969 4.399 6.85575 4.48271 6.79157C4.56641 6.7274 4.65291 6.67299 4.7422 6.62835C4.83148 6.58371 4.90961 6.54743 4.97657 6.51953C5.04354 6.49163 5.12306 6.46931 5.21513 6.45257C5.30721 6.43583 5.37278 6.42327 5.41184 6.4149C5.4509 6.40653 5.51508 6.39816 5.60436 6.38979C5.69365 6.38142 5.74108 6.37723 5.74666 6.37723C7.14733 6.27679 8.89677 6.22656 10.995 6.22656Z" fill="white"/>
</g>
<defs>
<clipPath id="clip0_84_29">
<rect width="15.77" height="15" fill="white" transform="matrix(1 0 0 -1 3.10999 19)"/>
</clipPath>
</defs>
</svg>
