<svg width="23" height="22" viewBox="0 0 23 22" fill="none" xmlns="http://www.w3.org/2000/svg">
<rect width="22" height="22" transform="translate(0.660034)" fill="#4B5E96"/>
<g clip-path="url(#clip0_84_34)">
<path d="M6.29791 8.99723C6.29791 8.39455 6.40254 7.82675 6.61181 7.29382C6.82107 6.7609 7.10985 6.29633 7.47816 5.90013C7.84646 5.50392 8.27057 5.16073 8.75048 4.87055C9.23039 4.58037 9.74657 4.36274 10.299 4.21765C10.8515 4.07256 11.4151 4.00002 11.9899 4.00002C12.8716 4.00002 13.6919 4.18556 14.4508 4.55666C15.2097 4.92775 15.8264 5.46765 16.3007 6.17636C16.775 6.88506 17.0122 7.68584 17.0122 8.5787C17.0122 9.11442 16.9592 9.63897 16.8532 10.1524C16.7471 10.6658 16.5797 11.1596 16.3509 11.6339C16.1221 12.1083 15.8431 12.5254 15.5139 12.8853C15.1846 13.2453 14.7801 13.5327 14.3001 13.7475C13.8202 13.9624 13.2929 14.0698 12.7181 14.0698C12.3386 14.0698 11.962 13.9805 11.5881 13.8019C11.2142 13.6233 10.9463 13.3778 10.7845 13.0653C10.7287 13.2829 10.6506 13.5968 10.5501 14.007C10.4497 14.4171 10.3841 14.6822 10.3534 14.8022C10.3227 14.9222 10.2655 15.1203 10.1818 15.3965C10.0981 15.6727 10.0256 15.8708 9.96421 15.9908C9.90282 16.1108 9.81354 16.2852 9.69635 16.514C9.57916 16.7428 9.45081 16.959 9.31131 17.1627C9.1718 17.3664 8.99881 17.6077 8.79233 17.8867L8.67514 17.9286L8.59981 17.8449C8.5161 16.9688 8.47425 16.4442 8.47425 16.2712C8.47425 15.7578 8.53424 15.1817 8.65422 14.5427C8.7742 13.9038 8.95974 13.1016 9.21086 12.1362C9.46197 11.1708 9.60706 10.6044 9.64613 10.437C9.46756 10.0742 9.37827 9.6027 9.37827 9.02234C9.37827 8.55917 9.52336 8.1239 9.81354 7.71654C10.1037 7.30917 10.472 7.10549 10.9184 7.10549C11.2588 7.10549 11.5239 7.21849 11.7136 7.44449C11.9034 7.6705 11.9982 7.95649 11.9982 8.30247C11.9982 8.67078 11.8755 9.2037 11.6299 9.90125C11.3844 10.5988 11.2616 11.1206 11.2616 11.4665C11.2616 11.8181 11.3872 12.1097 11.6383 12.3413C11.8894 12.5728 12.1936 12.6886 12.5507 12.6886C12.8576 12.6886 13.1422 12.6189 13.4045 12.4794C13.6668 12.3399 13.8858 12.1501 14.0616 11.9102C14.2374 11.6702 14.3936 11.4052 14.5303 11.115C14.6671 10.8248 14.7731 10.5165 14.8484 10.19C14.9237 9.86358 14.9796 9.55387 15.0158 9.2609C15.0521 8.96793 15.0702 8.69031 15.0702 8.42803C15.0702 7.46263 14.7647 6.71068 14.1537 6.17217C13.5426 5.63367 12.746 5.36442 11.7639 5.36442C10.6478 5.36442 9.71588 5.72574 8.96811 6.4484C8.22035 7.17106 7.84646 8.08763 7.84646 9.19812C7.84646 9.44366 7.88134 9.68082 7.95109 9.90962C8.02085 10.1384 8.09618 10.3198 8.1771 10.4537C8.25801 10.5876 8.33335 10.7146 8.4031 10.8346C8.47286 10.9545 8.50773 11.0396 8.50773 11.0899C8.50773 11.2461 8.46588 11.4498 8.38218 11.7009C8.29847 11.952 8.19523 12.0776 8.07247 12.0776C8.06131 12.0776 8.01387 12.0692 7.93017 12.0525C7.64557 11.9688 7.39306 11.8125 7.17263 11.5837C6.95221 11.3549 6.78201 11.0913 6.66203 10.7927C6.54205 10.4942 6.45137 10.1928 6.38999 9.88869C6.3286 9.58456 6.29791 9.28741 6.29791 8.99723Z" fill="white"/>
</g>
<defs>
<clipPath id="clip0_84_34">
<rect width="11.47" height="15" fill="white" transform="matrix(1 0 0 -1 5.92004 19)"/>
</clipPath>
</defs>
</svg>
