<svg width="23" height="22" viewBox="0 0 23 22" fill="none" xmlns="http://www.w3.org/2000/svg">
<rect width="22" height="22" transform="translate(0.340027)" fill="#4B5E96"/>
<g clip-path="url(#clip0_84_23)">
<path d="M12.8501 13.0151C12.8501 13.0151 12.9547 12.9105 13.164 12.7012C13.3733 12.4919 13.4779 12.0915 13.4779 11.5C13.4779 10.9085 13.2686 10.4035 12.8501 9.98495C12.4316 9.56642 11.9266 9.35716 11.335 9.35716C10.7435 9.35716 10.2385 9.56642 9.81997 9.98495C9.40144 10.4035 9.19218 10.9085 9.19218 11.5C9.19218 12.0915 9.40144 12.5966 9.81997 13.0151C10.2385 13.4336 10.7435 13.6429 11.335 13.6429C11.9266 13.6429 12.4316 13.4336 12.8501 13.0151ZM13.6704 9.16464C13.6704 9.16464 13.8308 9.32507 14.1517 9.64594C14.4726 9.96681 14.633 10.5848 14.633 11.5C14.633 12.4152 14.3122 13.1937 13.6704 13.8354C13.0287 14.4771 12.2502 14.798 11.335 14.798C10.4199 14.798 9.6414 14.4771 8.99966 13.8354C8.35791 13.1937 8.03704 12.4152 8.03704 11.5C8.03704 10.5848 8.35791 9.80638 8.99966 9.16464C9.6414 8.5229 10.4199 8.20203 11.335 8.20203C12.2502 8.20203 13.0287 8.5229 13.6704 9.16464ZM15.311 7.52401C15.311 7.52401 15.3487 7.56168 15.424 7.63702C15.4994 7.71235 15.537 7.85604 15.537 8.0681C15.537 8.28015 15.4617 8.46151 15.311 8.61218C15.1604 8.76285 14.979 8.83819 14.767 8.83819C14.5549 8.83819 14.3735 8.76285 14.2229 8.61218C14.0722 8.46151 13.9969 8.28015 13.9969 8.0681C13.9969 7.85604 14.0722 7.67468 14.2229 7.52401C14.3735 7.37334 14.5549 7.29801 14.767 7.29801C14.979 7.29801 15.1604 7.37334 15.311 7.52401ZM11.9754 6.2224C11.9754 6.2224 11.8784 6.22309 11.6845 6.22449C11.4906 6.22588 11.3741 6.22658 11.335 6.22658C11.296 6.22658 11.0825 6.22519 10.6947 6.2224C10.3069 6.2196 10.0125 6.2196 9.8116 6.2224C9.6107 6.22519 9.34145 6.23356 9.00384 6.24751C8.66623 6.26146 8.37884 6.28936 8.14168 6.33121C7.90451 6.37306 7.70501 6.42468 7.54318 6.48607C7.26416 6.59767 7.01863 6.7595 6.80658 6.97156C6.59452 7.18361 6.43269 7.42915 6.32108 7.70817C6.2597 7.87 6.20808 8.06949 6.16623 8.30666C6.12438 8.54382 6.09647 8.83121 6.08252 9.16882C6.06857 9.50644 6.0602 9.77569 6.05741 9.97658C6.05462 10.1775 6.05462 10.4718 6.05741 10.8597C6.0602 11.2475 6.0616 11.461 6.0616 11.5C6.0616 11.5391 6.0602 11.7525 6.05741 12.1404C6.05462 12.5282 6.05462 12.8226 6.05741 13.0235C6.0602 13.2243 6.06857 13.4936 6.08252 13.8312C6.09647 14.1688 6.12438 14.4562 6.16623 14.6934C6.20808 14.9305 6.2597 15.13 6.32108 15.2919C6.43269 15.5709 6.59452 15.8164 6.80658 16.0285C7.01863 16.2405 7.26416 16.4024 7.54318 16.514C7.70501 16.5754 7.90451 16.627 8.14168 16.6688C8.37884 16.7107 8.66623 16.7386 9.00384 16.7525C9.34145 16.7665 9.6107 16.7749 9.8116 16.7776C10.0125 16.7804 10.3069 16.7804 10.6947 16.7776C11.0825 16.7749 11.296 16.7735 11.335 16.7735C11.3741 16.7735 11.5875 16.7749 11.9754 16.7776C12.3632 16.7804 12.6576 16.7804 12.8585 16.7776C13.0594 16.7749 13.3286 16.7665 13.6662 16.7525C14.0038 16.7386 14.2912 16.7107 14.5284 16.6688C14.7656 16.627 14.9651 16.5754 15.1269 16.514C15.4059 16.4024 15.6514 16.2405 15.8635 16.0285C16.0755 15.8164 16.2374 15.5709 16.349 15.2919C16.4104 15.13 16.462 14.9305 16.5038 14.6934C16.5457 14.4562 16.5736 14.1688 16.5875 13.8312C16.6015 13.4936 16.6099 13.2243 16.6127 13.0235C16.6154 12.8226 16.6154 12.5282 16.6127 12.1404C16.6099 11.7525 16.6085 11.5391 16.6085 11.5C16.6085 11.461 16.6099 11.2475 16.6127 10.8597C16.6154 10.4718 16.6154 10.1775 16.6127 9.97658C16.6099 9.77569 16.6015 9.50644 16.5875 9.16882C16.5736 8.83121 16.5457 8.54382 16.5038 8.30666C16.462 8.06949 16.4104 7.87 16.349 7.70817C16.2374 7.42915 16.0755 7.18361 15.8635 6.97156C15.6514 6.7595 15.4059 6.59767 15.1269 6.48607C14.9651 6.42468 14.7656 6.37306 14.5284 6.33121C14.2912 6.28936 14.0038 6.26146 13.6662 6.24751C13.3286 6.23356 13.0594 6.22519 12.8585 6.2224C12.6576 6.2196 12.3632 6.2196 11.9754 6.2224ZM17.7218 8.84656C17.7497 9.33763 17.7636 10.2221 17.7636 11.5C17.7636 12.7779 17.7497 13.6624 17.7218 14.1535C17.6659 15.3142 17.32 16.2126 16.6838 16.8488C16.0476 17.485 15.1492 17.8309 13.9885 17.8867C13.4974 17.9146 12.6129 17.9286 11.335 17.9286C10.0571 17.9286 9.17265 17.9146 8.68158 17.8867C7.52086 17.8309 6.62242 17.485 5.98626 16.8488C5.3501 16.2126 5.00412 15.3142 4.94832 14.1535C4.92041 13.6624 4.90646 12.7779 4.90646 11.5C4.90646 10.2221 4.92041 9.33763 4.94832 8.84656C5.00412 7.68584 5.3501 6.78741 5.98626 6.15125C6.62242 5.51508 7.52086 5.1691 8.68158 5.1133C9.17265 5.0854 10.0571 5.07145 11.335 5.07145C12.6129 5.07145 13.4974 5.0854 13.9885 5.1133C15.1492 5.1691 16.0476 5.51508 16.6838 6.15125C17.32 6.78741 17.6659 7.68584 17.7218 8.84656Z" fill="white"/>
</g>
<defs>
<clipPath id="clip0_84_23">
<rect width="13.61" height="15" fill="white" transform="matrix(1 0 0 -1 4.53003 19)"/>
</clipPath>
</defs>
</svg>
